<?xml version="1.0" encoding="UTF-8"?><!DOCTYPE svg PUBLIC "-//W3C//DTD SVG 1.1//EN" "http://www.w3.org/Graphics/SVG/1.1/DTD/svg11.dtd"><svg xmlns="http://www.w3.org/2000/svg" xmlns:xlink="http://www.w3.org/1999/xlink"><symbol id="close" viewBox="0 0 20 20"><g fill="none">
<path d="M18.4851 17.0563L2.92879 1.49995C2.53826 1.10943 1.9051 1.10943 1.51457 1.49995C1.12405 1.89048 1.12405 2.52364 1.51457 2.91417L17.0709 18.4705C17.4614 18.861 18.0946 18.861 18.4851 18.4705C18.8757 18.08 18.8757 17.4468 18.4851 17.0563Z" fill="#AEAEAE"/>
<path d="M17.0711 1.52939L1.51472 17.0857C1.1242 17.4763 1.1242 18.1094 1.51472 18.5C1.90525 18.8905 2.53841 18.8905 2.92894 18.5L18.4853 2.9436C18.8758 2.55308 18.8758 1.91992 18.4853 1.52939C18.0948 1.13887 17.4616 1.13887 17.0711 1.52939Z" fill="#AEAEAE"/>
</g></symbol><symbol id="sort" viewBox="0 0 490 490"><g fill="#000000">
<g>
	<polygon points="85.877,154.014 85.877,428.309 131.706,428.309 131.706,154.014 180.497,221.213 217.584,194.27 108.792,44.46 
		0,194.27 37.087,221.213 	"/>
	<polygon points="404.13,335.988 404.13,61.691 358.301,61.691 358.301,335.99 309.503,268.787 272.416,295.73 381.216,445.54 
		490,295.715 452.913,268.802 	"/>
</g>
</g></symbol></svg>